{
  "accessors": [
    {
      "bufferView": 2,
      "componentType": 5126,
      "count": 485,
      "max": [
        0.43591830134391785,
        0.43591830134391785,
        0.039704304188489914
      ],
      "min": [
        -0.43591830134391785,
        -0.43591830134391785,
        -0.039555806666612625
      ],
      "type": "VEC3"
    },
    {
      "bufferView": 2,
      "byteOffset": 5820,
      "componentType": 5126,
      "count": 485,
      "max": [
        0.9975759983062744,
        0.9975759387016296,
        1.0
      ],
      "min": [
        -0.9975759983062744,
        -0.9975759387016296,
        -0.9998497366905212
      ],
      "type": "VEC3"
    },
    {
      "bufferView": 1,
      "componentType": 5126,
      "count": 485,
      "max": [
        0.9452681541442871,
        0.5117427706718445
      ],
      "min": [
        0.00244140625,
        0.00244140625
      ],
      "type": "VEC2"
    },
    {
      "bufferView": 0,
      "componentType": 5125,
      "count": 2280,
      "type": "SCALAR"
    },
    {
      "bufferView": 2,
      "byteOffset": 11640,
      "componentType": 5126,
      "count": 236,
      "max": [
        0.3816586434841156,
        0.3952924907207489,
        0.0
      ],
      "min": [
        -0.3816586434841156,
        -0.3952925503253937,
        -0.23245561122894287
      ],
      "type": "VEC3"
    },
    {
      "bufferView": 2,
      "byteOffset": 14472,
      "componentType": 5126,
      "count": 236,
      "max": [
        0.9814138412475586,
        0.972082257270813,
        0.5536954998970032
      ],
      "min": [
        -0.9814138412475586,
        -0.9720820188522339,
        -0.9995430707931519
      ],
      "type": "VEC3"
    },
    {
      "bufferView": 1,
      "byteOffset": 3880,
      "componentType": 5126,
      "count": 236,
      "max": [
        0.16966089606285095,
        0.917252779006958
      ],
      "min": [
        0.0032166438177227974,
        0.6908836364746094
      ],
      "type": "VEC2"
    },
    {
      "bufferView": 0,
      "byteOffset": 9120,
      "componentType": 5125,
      "count": 1056,
      "type": "SCALAR"
    },
    {
      "bufferView": 2,
      "byteOffset": 17304,
      "componentType": 5126,
      "count": 717,
      "max": [
        0.40007051825523376,
        0.40007051825523376,
        0.0
      ],
      "min": [
        -0.40007054805755615,
        -0.40007054805755615,
        -0.00876530259847641
      ],
      "type": "VEC3"
    },
    {
      "bufferView": 2,
      "byteOffset": 25908,
      "componentType": 5126,
      "count": 717,
      "max": [
        0.9883043766021729,
        0.9883052706718445,
        1.0
      ],
      "min": [
        -0.9883050918579102,
        -0.9883044958114624,
        0.14239805936813354
      ],
      "type": "VEC3"
    },
    {
      "bufferView": 1,
      "byteOffset": 5768,
      "componentType": 5126,
      "count": 717,
      "max": [
        0.9016606211662292,
        0.9882537126541138
      ],
      "min": [
        0.6039926409721375,
        0.6905758380889893
      ],
      "type": "VEC2"
    },
    {
      "bufferView": 0,
      "byteOffset": 13344,
      "componentType": 5125,
      "count": 3600,
      "type": "SCALAR"
    },
    {
      "bufferView": 2,
      "byteOffset": 34512,
      "componentType": 5126,
      "count": 249,
      "max": [
        0.131437286734581,
        0.131437286734581,
        0.12520776689052582
      ],
      "min": [
        -0.131437286734581,
        -0.1314373016357422,
        0.009996135719120502
      ],
      "type": "VEC3"
    },
    {
      "bufferView": 2,
      "byteOffset": 37500,
      "componentType": 5126,
      "count": 249,
      "max": [
        0.9997105002403259,
        0.9997105598449707,
        1.0
      ],
      "min": [
        -0.9997092485427856,
        -0.9997054934501648,
        -1.0
      ],
      "type": "VEC3"
    },
    {
      "bufferView": 1,
      "byteOffset": 11504,
      "componentType": 5126,
      "count": 249,
      "max": [
        0.7832966446876526,
        0.5990746021270752
      ],
      "min": [
        0.41785213351249695,
        0.08066771924495697
      ],
      "type": "VEC2"
    },
    {
      "bufferView": 0,
      "byteOffset": 27744,
      "componentType": 5125,
      "count": 1248,
      "type": "SCALAR"
    },
    {
      "bufferView": 2,
      "byteOffset": 40488,
      "componentType": 5126,
      "count": 39,
      "max": [
        0.06812050193548203,
        0.06812050193548203,
        0.06812050193548203
      ],
      "min": [
        -0.06812050193548203,
        -0.06812050193548203,
        -0.06812050193548203
      ],
      "type": "VEC3"
    },
    {
      "bufferView": 2,
      "byteOffset": 40956,
      "componentType": 5126,
      "count": 39,
      "max": [
        1.0,
        1.0,
        1.0
      ],
      "min": [
        -1.0,
        -1.0,
        -1.0
      ],
      "type": "VEC3"
    },
    {
      "bufferView": 1,
      "byteOffset": 13496,
      "componentType": 5126,
      "count": 39,
      "max": [
        0.2880559265613556,
        0.98076331615448
      ],
      "min": [
        0.1415553241968155,
        0.7798399925231934
      ],
      "type": "VEC2"
    },
    {
      "bufferView": 0,
      "byteOffset": 32736,
      "componentType": 5125,
      "count": 144,
      "type": "SCALAR"
    },
    {
      "bufferView": 2,
      "byteOffset": 41424,
      "componentType": 5126,
      "count": 39,
      "max": [
        0.04465032368898392,
        0.04392118379473686,
        0.04544466361403465
      ],
      "min": [
        -0.04465032368898392,
        -0.04392118379473686,
        -0.04544466361403465
      ],
      "type": "VEC3"
    },
    {
      "bufferView": 2,
      "byteOffset": 41892,
      "componentType": 5126,
      "count": 39,
      "max": [
        0.9651057124137878,
        0.9493454098701477,
        0.9822751879692078
      ],
      "min": [
        -0.9651057124137878,
        -0.9493454694747925,
        -0.9822751879692078
      ],
      "type": "VEC3"
    },
    {
      "bufferView": 1,
      "byteOffset": 13808,
      "componentType": 5126,
      "count": 39,
      "max": [
        0.10193869471549988,
        0.6266446709632874
      ],
      "min": [
        0.00244140625,
        0.4901856780052185
      ],
      "type": "VEC2"
    },
    {
      "bufferView": 0,
      "byteOffset": 33312,
      "componentType": 5125,
      "count": 144,
      "type": "SCALAR"
    },
    {
      "bufferView": 2,
      "byteOffset": 42360,
      "componentType": 5126,
      "count": 39,
      "max": [
        0.051831357181072235,
        0.05364393815398216,
        0.05269589647650719
      ],
      "min": [
        -0.051831357181072235,
        -0.05364394187927246,
        -0.05269589647650719
      ],
      "type": "VEC3"
    },
    {
      "bufferView": 2,
      "byteOffset": 42828,
      "componentType": 5126,
      "count": 39,
      "max": [
        0.9178024530410767,
        0.9498986601829529,
        0.9581788778305054
      ],
      "min": [
        -0.9178024530410767,
        -0.9498987197875977,
        -0.9581789374351501
      ],
      "type": "VEC3"
    },
    {
      "bufferView": 1,
      "byteOffset": 14120,
      "componentType": 5126,
      "count": 39,
      "max": [
        0.340119868516922,
        0.8475126624107361
      ],
      "min": [
        0.22184523940086365,
        0.6853007674217224
      ],
      "type": "VEC2"
    },
    {
      "bufferView": 0,
      "byteOffset": 33888,
      "componentType": 5125,
      "count": 144,
      "type": "SCALAR"
    },
    {
      "bufferView": 2,
      "byteOffset": 43296,
      "componentType": 5126,
      "count": 160,
      "max": [
        0.34257280826568604,
        0.34257280826568604,
        2.9802322387695313e-08
      ],
      "min": [
        -0.3425728678703308,
        -0.3425728380680084,
        -0.15491674840450287
      ],
      "type": "VEC3"
    },
    {
      "bufferView": 2,
      "byteOffset": 45216,
      "componentType": 5126,
      "count": 160,
      "max": [
        0.9796624779701233,
        0.9796624779701233,
        0.3602481484413147
      ],
      "min": [
        -0.9796624779701233,
        -0.9796626567840576,
        -0.8775560855865479
      ],
      "type": "VEC3"
    },
    {
      "bufferView": 1,
      "byteOffset": 14432,
      "componentType": 5126,
      "count": 160,
      "max": [
        0.9441677927970886,
        0.703214168548584
      ],
      "min": [
        0.08676750212907791,
        0.3820820152759552
      ],
      "type": "VEC2"
    },
    {
      "bufferView": 0,
      "byteOffset": 34464,
      "componentType": 5125,
      "count": 648,
      "type": "SCALAR"
    }
  ],
  "asset": {
    "extras": {
      "author": "Pricey (https://sketchfab.com/siddharthkuthal)",
      "license": "CC-BY-4.0 (http://creativecommons.org/licenses/by/4.0/)",
      "source": "https://sketchfab.com/3d-models/cute-stylized-table-low-poly-game-ready-cfdf48b8610342a09e1d7c13513d8507",
      "title": "Cute stylized Table- low poly - game ready"
    },
    "generator": "Sketchfab-15.26.0",
    "version": "2.0"
  },
  "bufferViews": [
    {
      "buffer": 0,
      "byteLength": 37056,
      "name": "floatBufferViews",
      "target": 34963
    },
    {
      "buffer": 0,
      "byteLength": 15712,
      "byteOffset": 37056,
      "byteStride": 8,
      "name": "floatBufferViews",
      "target": 34962
    },
    {
      "buffer": 0,
      "byteLength": 47136,
      "byteOffset": 52768,
      "byteStride": 12,
      "name": "floatBufferViews",
      "target": 34962
    }
  ],
  "buffers": [
    {
      "byteLength": 99904,
      "uri": "scene.bin"
    }
  ],
  "extensionsUsed": [
    "KHR_materials_unlit"
  ],
  "images": [
    {
      "uri": "textures/Material_baseColor.png"
    }
  ],
  "materials": [
    {
      "doubleSided": true,
      "extensions": {
        "KHR_materials_unlit": {}
      },
      "name": "Material",
      "pbrMetallicRoughness": {
        "baseColorTexture": {
          "index": 0
        },
        "metallicFactor": 0.0
      }
    }
  ],
  "meshes": [
    {
      "name": "Plane_Material_0",
      "primitives": [
        {
          "attributes": {
            "NORMAL": 1,
            "POSITION": 0,
            "TEXCOORD_0": 2
          },
          "indices": 3,
          "material": 0,
          "mode": 4
        }
      ]
    },
    {
      "name": "Cube_Material_0",
      "primitives": [
        {
          "attributes": {
            "NORMAL": 5,
            "POSITION": 4,
            "TEXCOORD_0": 6
          },
          "indices": 7,
          "material": 0,
          "mode": 4
        }
      ]
    },
    {
      "name": "Plane.002_Material_0",
      "primitives": [
        {
          "attributes": {
            "NORMAL": 9,
            "POSITION": 8,
            "TEXCOORD_0": 10
          },
          "indices": 11,
          "material": 0,
          "mode": 4
        }
      ]
    },
    {
      "name": "Cube.003_Material_0",
      "primitives": [
        {
          "attributes": {
            "NORMAL": 13,
            "POSITION": 12,
            "TEXCOORD_0": 14
          },
          "indices": 15,
          "material": 0,
          "mode": 4
        }
      ]
    },
    {
      "name": "Cube.004_Material_0",
      "primitives": [
        {
          "attributes": {
            "NORMAL": 17,
            "POSITION": 16,
            "TEXCOORD_0": 18
          },
          "indices": 19,
          "material": 0,
          "mode": 4
        }
      ]
    },
    {
      "name": "Cube.005_Material_0",
      "primitives": [
        {
          "attributes": {
            "NORMAL": 21,
            "POSITION": 20,
            "TEXCOORD_0": 22
          },
          "indices": 23,
          "material": 0,
          "mode": 4
        }
      ]
    },
    {
      "name": "Cube.006_Material_0",
      "primitives": [
        {
          "attributes": {
            "NORMAL": 25,
            "POSITION": 24,
            "TEXCOORD_0": 26
          },
          "indices": 27,
          "material": 0,
          "mode": 4
        }
      ]
    },
    {
      "name": "Cube.007_Material_0",
      "primitives": [
        {
          "attributes": {
            "NORMAL": 29,
            "POSITION": 28,
            "TEXCOORD_0": 30
          },
          "indices": 31,
          "material": 0,
          "mode": 4
        }
      ]
    }
  ],
  "nodes": [
    {
      "children": [
        1
      ],
      "matrix": [
        1.0,
        0.0,
        0.0,
        0.0,
        0.0,
        2.220446049250313e-16,
        -1.0,
        0.0,
        0.0,
        1.0,
        2.220446049250313e-16,
        0.0,
        0.0,
        0.0,
        0.0,
        1.0
      ],
      "name": "Sketchfab_model"
    },
    {
      "children": [
        2
      ],
      "matrix": [
        0.009999999776482582,
        0.0,
        0.0,
        0.0,
        0.0,
        0.0,
        0.009999999776482582,
        0.0,
        0.0,
        -0.009999999776482582,
        0.0,
        0.0,
        0.0,
        0.0,
        0.0,
        1.0
      ],
      "name": "7db92bf5d8eb48c98f65e5be5894bc9f.fbx"
    },
    {
      "children": [
        3,
        5,
        7,
        9,
        17
      ],
      "name": "RootNode"
    },
    {
      "children": [
        4
      ],
      "matrix": [
        100.0,
        0.0,
        0.0,
        0.0,
        0.0,
        -1.629206793918314e-05,
        -99.99999999999868,
        0.0,
        0.0,
        99.99999999999868,
        -1.629206793918314e-05,
        0.0,
        0.0,
        24.173627853393555,
        0.0,
        1.0
      ],
      "name": "Plane"
    },
    {
      "mesh": 0,
      "name": "Plane_Material_0"
    },
    {
      "children": [
        6
      ],
      "matrix": [
        109.8724136352539,
        0.0,
        0.0,
        0.0,
        0.0,
        8.2951364533022e-06,
        -109.8724136352536,
        0.0,
        0.0,
        109.8724136352536,
        8.2951364533022e-06,
        0.0,
        0.0,
        21.542022705078125,
        -3.017009930772474e-06,
        1.0
      ],
      "name": "Cube"
    },
    {
      "mesh": 1,
      "name": "Cube_Material_0"
    },
    {
      "children": [
        8
      ],
      "matrix": [
        100.0,
        0.0,
        0.0,
        0.0,
        0.0,
        -1.629206793918314e-05,
        -99.99999999999868,
        0.0,
        0.0,
        99.99999999999868,
        -1.629206793918314e-05,
        0.0,
        5.0960807129740715e-06,
        28.73019027709961,
        -1.7881393432617188e-05,
        1.0
      ],
      "name": "Plane.002"
    },
    {
      "mesh": 2,
      "name": "Plane.002_Material_0"
    },
    {
      "children": [
        10,
        11,
        13,
        15
      ],
      "matrix": [
        100.0,
        0.0,
        0.0,
        0.0,
        -0.0,
        -1.629206793918314e-05,
        -99.99999999999868,
        0.0,
        0.0,
        99.99999999999868,
        -1.629206793918314e-05,
        0.0,
        -12.931730270385742,
        27.528106689453125,
        -7.214777946472168,
        1.0
      ],
      "name": "Cube.003"
    },
    {
      "mesh": 3,
      "name": "Cube.003_Material_0"
    },
    {
      "children": [
        12
      ],
      "matrix": [
        1.0,
        0.0,
        0.0,
        0.0,
        0.0,
        1.0,
        -2.646977960169688e-23,
        0.0,
        0.0,
        2.646977960169688e-23,
        1.0,
        0.0,
        -0.03758692741394043,
        0.011196114122867584,
        0.10414674878120422,
        1.0
      ],
      "name": "Cube.004"
    },
    {
      "mesh": 4,
      "name": "Cube.004_Material_0"
    },
    {
      "children": [
        14
      ],
      "matrix": [
        1.0,
        0.0,
        0.0,
        0.0,
        0.0,
        1.0,
        -2.646977960169688e-23,
        0.0,
        0.0,
        2.646977960169688e-23,
        1.0,
        0.0,
        0.025723733007907867,
        -0.06633269786834717,
        0.10184705257415771,
        1.0
      ],
      "name": "Cube.005"
    },
    {
      "mesh": 5,
      "name": "Cube.005_Material_0"
    },
    {
      "children": [
        16
      ],
      "matrix": [
        1.0,
        0.0,
        0.0,
        0.0,
        0.0,
        1.0,
        -2.646977960169688e-23,
        0.0,
        0.0,
        2.646977960169688e-23,
        1.0,
        0.0,
        0.06725612282752991,
        0.011023961007595062,
        0.12052026391029358,
        1.0
      ],
      "name": "Cube.006"
    },
    {
      "mesh": 6,
      "name": "Cube.006_Material_0"
    },
    {
      "children": [
        18
      ],
      "matrix": [
        109.8724136352539,
        0.0,
        0.0,
        0.0,
        0.0,
        8.2951364533022e-06,
        -109.8724136352536,
        0.0,
        0.0,
        109.8724136352536,
        8.2951364533022e-06,
        0.0,
        0.0,
        21.542022705078125,
        -2.198396714447881e-06,
        1.0
      ],
      "name": "Cube.007"
    },
    {
      "mesh": 7,
      "name": "Cube.007_Material_0"
    }
  ],
  "samplers": [
    {
      "magFilter": 9729,
      "minFilter": 9987,
      "wrapS": 10497,
      "wrapT": 10497
    }
  ],
  "scene": 0,
  "scenes": [
    {
      "name": "Sketchfab_Scene",
      "nodes": [
        0
      ]
    }
  ],
  "textures": [
    {
      "sampler": 0,
      "source": 0
    }
  ]
}
