{
  "accessors": [
    {
      "bufferView": 2,
      "componentType": 5126,
      "count": 305,
      "max": [
        0.04700168967247009,
        0.7711753845214844,
        1.1506805419921875
      ],
      "min": [
        -0.10474836826324463,
        -0.7711753845214844,
        -0.10866118222475052
      ],
      "type": "VEC3"
    },
    {
      "bufferView": 2,
      "byteOffset": 3660,
      "componentType": 5126,
      "count": 305,
      "max": [
        0.9999727010726929,
        0.9927345514297485,
        0.9914588332176208
      ],
      "min": [
        -0.9999727010726929,
        -0.9927344918251038,
        -0.9926617741584778
      ],
      "type": "VEC3"
    },
    {
      "bufferView": 1,
      "componentType": 5126,
      "count": 305,
      "max": [
        0.99755859375,
        0.6028540134429932
      ],
      "min": [
        0.6906079053878784,
        0.00244140625
      ],
      "type": "VEC2"
    },
    {
      "bufferView": 0,
      "componentType": 5125,
      "count": 1356,
      "type": "SCALAR"
    },
    {
      "bufferView": 2,
      "byteOffset": 7320,
      "componentType": 5126,
      "count": 95,
      "max": [
        0.5137518048286438,
        0.8274260759353638,
        0.015408501029014587
      ],
      "min": [
        -0.13952875137329102,
        -0.8274260759353638,
        -0.4639686644077301
      ],
      "type": "VEC3"
    },
    {
      "bufferView": 2,
      "byteOffset": 8460,
      "componentType": 5126,
      "count": 95,
      "max": [
        0.9999970197677612,
        0.9846610426902771,
        0.9978193640708923
      ],
      "min": [
        -0.22836115956306458,
        -0.9840194582939148,
        -0.95358806848526
      ],
      "type": "VEC3"
    },
    {
      "bufferView": 1,
      "byteOffset": 2440,
      "componentType": 5126,
      "count": 95,
      "max": [
        0.17897087335586548,
        0.3713356554508209
      ],
      "min": [
        0.04326711222529411,
        0.003429295029491186
      ],
      "type": "VEC2"
    },
    {
      "bufferView": 0,
      "byteOffset": 5424,
      "componentType": 5125,
      "count": 444,
      "type": "SCALAR"
    },
    {
      "bufferView": 2,
      "byteOffset": 9600,
      "componentType": 5126,
      "count": 159,
      "max": [
        1.607047438621521,
        0.7276172041893005,
        0.46907979249954224
      ],
      "min": [
        0.05295966938138008,
        -0.7276171445846558,
        0.22189289331436157
      ],
      "type": "VEC3"
    },
    {
      "bufferView": 2,
      "byteOffset": 11508,
      "componentType": 5126,
      "count": 159,
      "max": [
        0.9686912894248962,
        0.9697465300559998,
        1.0
      ],
      "min": [
        -0.9686908721923828,
        -0.9697467088699341,
        -0.8267507553100586
      ],
      "type": "VEC3"
    },
    {
      "bufferView": 1,
      "byteOffset": 3200,
      "componentType": 5126,
      "count": 159,
      "max": [
        0.6205142736434937,
        0.9073292016983032
      ],
      "min": [
        0.31197917461395264,
        0.6169344186782837
      ],
      "type": "VEC2"
    },
    {
      "bufferView": 0,
      "byteOffset": 7200,
      "componentType": 5125,
      "count": 792,
      "type": "SCALAR"
    },
    {
      "bufferView": 2,
      "byteOffset": 13416,
      "componentType": 5126,
      "count": 137,
      "max": [
        0.004753828048706055,
        0.8474140763282776,
        0.059800148010253906
      ],
      "min": [
        -0.5674654841423035,
        -0.8411434888839722,
        -0.43000322580337524
      ],
      "type": "VEC3"
    },
    {
      "bufferView": 2,
      "byteOffset": 15060,
      "componentType": 5126,
      "count": 137,
      "max": [
        0.9999750852584839,
        0.9798169136047363,
        0.9999982118606567
      ],
      "min": [
        -0.9970256686210632,
        -0.9961321949958801,
        -0.9554777145385742
      ],
      "type": "VEC3"
    },
    {
      "bufferView": 1,
      "byteOffset": 4472,
      "componentType": 5126,
      "count": 137,
      "max": [
        0.29356276988983154,
        0.35999226570129395
      ],
      "min": [
        0.18813426792621613,
        0.00244140625
      ],
      "type": "VEC2"
    },
    {
      "bufferView": 0,
      "byteOffset": 10368,
      "componentType": 5125,
      "count": 672,
      "type": "SCALAR"
    },
    {
      "bufferView": 2,
      "byteOffset": 16704,
      "componentType": 5126,
      "count": 1032,
      "max": [
        1.9015312194824219,
        0.9232184886932373,
        0.4466470777988434
      ],
      "min": [
        -1.9059010744094849,
        -0.9211977124214172,
        -0.285695880651474
      ],
      "type": "VEC3"
    },
    {
      "bufferView": 2,
      "byteOffset": 29088,
      "componentType": 5126,
      "count": 1032,
      "max": [
        0.9945210218429565,
        0.9999740123748779,
        0.9997144937515259
      ],
      "min": [
        -0.9999999403953552,
        -0.9999251961708069,
        -0.9997165203094482
      ],
      "type": "VEC3"
    },
    {
      "bufferView": 1,
      "byteOffset": 5568,
      "componentType": 5126,
      "count": 1032,
      "max": [
        0.7661513686180115,
        0.815696656703949
      ],
      "min": [
        0.00244140625,
        0.002511909231543541
      ],
      "type": "VEC2"
    },
    {
      "bufferView": 0,
      "byteOffset": 13056,
      "componentType": 5125,
      "count": 5478,
      "type": "SCALAR"
    },
    {
      "bufferView": 2,
      "byteOffset": 41472,
      "componentType": 5126,
      "count": 706,
      "max": [
        0.21168722212314606,
        0.31296706199645996,
        0.21924348175525665
      ],
      "min": [
        -0.1672234684228897,
        -0.31276723742485046,
        -0.17715029418468475
      ],
      "type": "VEC3"
    },
    {
      "bufferView": 2,
      "byteOffset": 49944,
      "componentType": 5126,
      "count": 706,
      "max": [
        0.9991830587387085,
        0.9999277591705322,
        0.9992557764053345
      ],
      "min": [
        -0.9983422756195068,
        -0.9999310970306396,
        -0.9992089867591858
      ],
      "type": "VEC3"
    },
    {
      "bufferView": 1,
      "byteOffset": 13824,
      "componentType": 5126,
      "count": 706,
      "max": [
        0.9911205172538757,
        0.926654040813446
      ],
      "min": [
        0.0024433096405118704,
        0.3554219901561737
      ],
      "type": "VEC2"
    },
    {
      "bufferView": 0,
      "byteOffset": 34968,
      "componentType": 5125,
      "count": 3840,
      "type": "SCALAR"
    },
    {
      "bufferView": 2,
      "byteOffset": 58416,
      "componentType": 5126,
      "count": 156,
      "max": [
        0.7812729477882385,
        0.7753804326057434,
        0.4752185344696045
      ],
      "min": [
        -0.6587457060813904,
        -0.7792831659317017,
        -0.04750663787126541
      ],
      "type": "VEC3"
    },
    {
      "bufferView": 2,
      "byteOffset": 60288,
      "componentType": 5126,
      "count": 156,
      "max": [
        0.6262292861938477,
        0.9860111474990845,
        0.996579110622406
      ],
      "min": [
        -0.622127115726471,
        -0.9997552037239075,
        -0.3304206430912018
      ],
      "type": "VEC3"
    },
    {
      "bufferView": 1,
      "byteOffset": 19472,
      "componentType": 5126,
      "count": 156,
      "max": [
        0.5482475161552429,
        0.31502601504325867
      ],
      "min": [
        0.3027631938457489,
        0.002442001597955823
      ],
      "type": "VEC2"
    },
    {
      "bufferView": 0,
      "byteOffset": 50328,
      "componentType": 5125,
      "count": 792,
      "type": "SCALAR"
    },
    {
      "bufferView": 2,
      "byteOffset": 62160,
      "componentType": 5126,
      "count": 167,
      "max": [
        0.42577698826789856,
        0.42577698826789856,
        0.2278301864862442
      ],
      "min": [
        -0.42577698826789856,
        -0.42577698826789856,
        0.004027699586004019
      ],
      "type": "VEC3"
    },
    {
      "bufferView": 2,
      "byteOffset": 64164,
      "componentType": 5126,
      "count": 167,
      "max": [
        1.0,
        1.0,
        1.0
      ],
      "min": [
        -1.0,
        -1.0,
        -1.0
      ],
      "type": "VEC3"
    },
    {
      "bufferView": 1,
      "byteOffset": 20720,
      "componentType": 5126,
      "count": 167,
      "max": [
        0.9967155456542969,
        0.9390808343887329
      ],
      "min": [
        0.0025622828397899866,
        0.002444148063659668
      ],
      "type": "VEC2"
    },
    {
      "bufferView": 0,
      "byteOffset": 53496,
      "componentType": 5125,
      "count": 768,
      "type": "SCALAR"
    },
    {
      "bufferView": 2,
      "byteOffset": 66168,
      "componentType": 5126,
      "count": 100,
      "max": [
        0.21253477036952972,
        0.10176222026348114,
        0.06705374270677567
      ],
      "min": [
        -0.21253477036952972,
        -0.27410489320755005,
        -0.06705375760793686
      ],
      "type": "VEC3"
    },
    {
      "bufferView": 2,
      "byteOffset": 67368,
      "componentType": 5126,
      "count": 100,
      "max": [
        0.9925698637962341,
        0.9913232922554016,
        0.9997708201408386
      ],
      "min": [
        -0.9925699234008789,
        -0.9887880086898804,
        -0.9997708201408386
      ],
      "type": "VEC3"
    },
    {
      "bufferView": 1,
      "byteOffset": 22056,
      "componentType": 5126,
      "count": 100,
      "max": [
        0.2972702980041504,
        0.9082185626029968
      ],
      "min": [
        0.044413041323423386,
        0.3739178776741028
      ],
      "type": "VEC2"
    },
    {
      "bufferView": 0,
      "byteOffset": 56568,
      "componentType": 5125,
      "count": 420,
      "type": "SCALAR"
    },
    {
      "bufferView": 2,
      "byteOffset": 68568,
      "componentType": 5126,
      "count": 305,
      "max": [
        1.7527321577072144,
        0.7711754441261292,
        0.5816421508789063
      ],
      "min": [
        1.6009820699691772,
        -0.7711754441261292,
        -0.10866118222475052
      ],
      "type": "VEC3"
    },
    {
      "bufferView": 2,
      "byteOffset": 72228,
      "componentType": 5126,
      "count": 305,
      "max": [
        0.9997828602790833,
        0.9925814867019653,
        0.9914475083351135
      ],
      "min": [
        -0.9997828602790833,
        -0.9925814270973206,
        -0.9926618337631226
      ],
      "type": "VEC3"
    },
    {
      "bufferView": 1,
      "byteOffset": 22856,
      "componentType": 5126,
      "count": 305,
      "max": [
        0.9027106761932373,
        0.9039362668991089
      ],
      "min": [
        0.6444473266601563,
        0.6063942313194275
      ],
      "type": "VEC2"
    },
    {
      "bufferView": 0,
      "byteOffset": 58248,
      "componentType": 5125,
      "count": 1356,
      "type": "SCALAR"
    },
    {
      "bufferView": 2,
      "byteOffset": 75888,
      "componentType": 5126,
      "count": 80,
      "max": [
        0.783001720905304,
        0.7349262237548828,
        0.07081671059131622
      ],
      "min": [
        -0.783001720905304,
        -0.7349262237548828,
        -0.08093341439962387
      ],
      "type": "VEC3"
    },
    {
      "bufferView": 2,
      "byteOffset": 76848,
      "componentType": 5126,
      "count": 80,
      "max": [
        0.992674708366394,
        0.9926959872245789,
        0.9773829579353333
      ],
      "min": [
        -0.9926761984825134,
        -0.9926939010620117,
        -0.9998322129249573
      ],
      "type": "VEC3"
    },
    {
      "bufferView": 1,
      "byteOffset": 25296,
      "componentType": 5126,
      "count": 80,
      "max": [
        0.6843251585960388,
        0.9906313419342041
      ],
      "min": [
        0.5900760293006897,
        0.8928266763687134
      ],
      "type": "VEC2"
    },
    {
      "bufferView": 0,
      "byteOffset": 63672,
      "componentType": 5125,
      "count": 342,
      "type": "SCALAR"
    }
  ],
  "asset": {
    "extras": {
      "author": "Pricey (https://sketchfab.com/siddharthkuthal)",
      "license": "CC-BY-4.0 (http://creativecommons.org/licenses/by/4.0/)",
      "source": "https://sketchfab.com/3d-models/cute-stylized-bed-low-poly-game-ready-fc53375324f64ba3aff9c25a81dae6f7",
      "title": "Cute stylized bed - low poly - game ready"
    },
    "generator": "Sketchfab-15.25.0",
    "version": "2.0"
  },
  "bufferViews": [
    {
      "buffer": 0,
      "byteLength": 65040,
      "name": "floatBufferViews",
      "target": 34963
    },
    {
      "buffer": 0,
      "byteLength": 25936,
      "byteOffset": 65040,
      "byteStride": 8,
      "name": "floatBufferViews",
      "target": 34962
    },
    {
      "buffer": 0,
      "byteLength": 77808,
      "byteOffset": 90976,
      "byteStride": 12,
      "name": "floatBufferViews",
      "target": 34962
    }
  ],
  "buffers": [
    {
      "byteLength": 168784,
      "uri": "scene.bin"
    }
  ],
  "extensionsUsed": [
    "KHR_materials_unlit"
  ],
  "images": [
    {
      "uri": "textures/Material_baseColor.png"
    }
  ],
  "materials": [
    {
      "doubleSided": true,
      "extensions": {
        "KHR_materials_unlit": {}
      },
      "name": "Material",
      "pbrMetallicRoughness": {
        "baseColorTexture": {
          "index": 0
        },
        "metallicFactor": 0.0
      }
    }
  ],
  "meshes": [
    {
      "name": "Plane_Material_0",
      "primitives": [
        {
          "attributes": {
            "NORMAL": 1,
            "POSITION": 0,
            "TEXCOORD_0": 2
          },
          "indices": 3,
          "material": 0,
          "mode": 4
        }
      ]
    },
    {
      "name": "Plane.001_Material_0",
      "primitives": [
        {
          "attributes": {
            "NORMAL": 5,
            "POSITION": 4,
            "TEXCOORD_0": 6
          },
          "indices": 7,
          "material": 0,
          "mode": 4
        }
      ]
    },
    {
      "name": "Plane.002_Material_0",
      "primitives": [
        {
          "attributes": {
            "NORMAL": 9,
            "POSITION": 8,
            "TEXCOORD_0": 10
          },
          "indices": 11,
          "material": 0,
          "mode": 4
        }
      ]
    },
    {
      "name": "Plane.003_Material_0",
      "primitives": [
        {
          "attributes": {
            "NORMAL": 13,
            "POSITION": 12,
            "TEXCOORD_0": 14
          },
          "indices": 15,
          "material": 0,
          "mode": 4
        }
      ]
    },
    {
      "name": "Plane.004_Material_0",
      "primitives": [
        {
          "attributes": {
            "NORMAL": 17,
            "POSITION": 16,
            "TEXCOORD_0": 18
          },
          "indices": 19,
          "material": 0,
          "mode": 4
        }
      ]
    },
    {
      "name": "Plane.005_Material_0",
      "primitives": [
        {
          "attributes": {
            "NORMAL": 21,
            "POSITION": 20,
            "TEXCOORD_0": 22
          },
          "indices": 23,
          "material": 0,
          "mode": 4
        }
      ]
    },
    {
      "name": "Plane.006_Material_0",
      "primitives": [
        {
          "attributes": {
            "NORMAL": 25,
            "POSITION": 24,
            "TEXCOORD_0": 26
          },
          "indices": 27,
          "material": 0,
          "mode": 4
        }
      ]
    },
    {
      "name": "Plane.007_Material_0",
      "primitives": [
        {
          "attributes": {
            "NORMAL": 29,
            "POSITION": 28,
            "TEXCOORD_0": 30
          },
          "indices": 31,
          "material": 0,
          "mode": 4
        }
      ]
    },
    {
      "name": "Circle_Material_0",
      "primitives": [
        {
          "attributes": {
            "NORMAL": 33,
            "POSITION": 32,
            "TEXCOORD_0": 34
          },
          "indices": 35,
          "material": 0,
          "mode": 4
        }
      ]
    },
    {
      "name": "Plane.008_Material_0",
      "primitives": [
        {
          "attributes": {
            "NORMAL": 37,
            "POSITION": 36,
            "TEXCOORD_0": 38
          },
          "indices": 39,
          "material": 0,
          "mode": 4
        }
      ]
    },
    {
      "name": "Plane.009_Material_0",
      "primitives": [
        {
          "attributes": {
            "NORMAL": 41,
            "POSITION": 40,
            "TEXCOORD_0": 42
          },
          "indices": 43,
          "material": 0,
          "mode": 4
        }
      ]
    }
  ],
  "nodes": [
    {
      "children": [
        1
      ],
      "matrix": [
        1.0,
        0.0,
        0.0,
        0.0,
        0.0,
        2.220446049250313e-16,
        -1.0,
        0.0,
        0.0,
        1.0,
        2.220446049250313e-16,
        0.0,
        0.0,
        0.0,
        0.0,
        1.0
      ],
      "name": "Sketchfab_model"
    },
    {
      "children": [
        2
      ],
      "matrix": [
        0.009999999776482582,
        0.0,
        0.0,
        0.0,
        0.0,
        0.0,
        0.009999999776482582,
        0.0,
        0.0,
        -0.009999999776482582,
        0.0,
        0.0,
        0.0,
        0.0,
        0.0,
        1.0
      ],
      "name": "f2850383796243d988ab1576f785a2f0.fbx"
    },
    {
      "children": [
        3,
        5,
        7,
        9,
        11,
        13,
        15,
        17,
        19,
        21,
        23
      ],
      "name": "RootNode"
    },
    {
      "children": [
        4
      ],
      "matrix": [
        100.0,
        0.0,
        0.0,
        0.0,
        0.0,
        -1.629206793918314e-05,
        -99.99999999999868,
        0.0,
        0.0,
        99.99999999999868,
        -1.629206793918314e-05,
        0.0,
        0.0,
        0.0,
        0.0,
        1.0
      ],
      "name": "Plane"
    },
    {
      "mesh": 0,
      "name": "Plane_Material_0"
    },
    {
      "children": [
        6
      ],
      "matrix": [
        100.0,
        0.0,
        0.0,
        0.0,
        0.0,
        -1.629206793918314e-05,
        -99.99999999999868,
        0.0,
        0.0,
        99.99999999999868,
        -1.629206793918314e-05,
        0.0,
        114.4464340209961,
        61.100406646728516,
        3.6715817941512796e-08,
        1.0
      ],
      "name": "Plane.001"
    },
    {
      "mesh": 1,
      "name": "Plane.001_Material_0"
    },
    {
      "children": [
        8
      ],
      "matrix": [
        100.0,
        0.0,
        0.0,
        0.0,
        0.0,
        -1.629206793918314e-05,
        -99.99999999999868,
        0.0,
        0.0,
        99.99999999999868,
        -1.629206793918314e-05,
        0.0,
        0.0,
        -5.7313032150268555,
        0.0,
        1.0
      ],
      "name": "Plane.002"
    },
    {
      "mesh": 2,
      "name": "Plane.002_Material_0"
    },
    {
      "children": [
        10
      ],
      "matrix": [
        100.0,
        0.0,
        0.0,
        0.0,
        0.0,
        -1.629206793918314e-05,
        -99.99999999999868,
        0.0,
        0.0,
        99.99999999999868,
        -1.629206793918314e-05,
        0.0,
        114.4464340209961,
        61.100406646728516,
        3.6715817941512796e-08,
        1.0
      ],
      "name": "Plane.003"
    },
    {
      "mesh": 3,
      "name": "Plane.003_Material_0"
    },
    {
      "children": [
        12
      ],
      "matrix": [
        2.938967361156461e-06,
        -2.1609271616291215e-15,
        -38.92780303955067,
        0.0,
        -20.622309286420705,
        33.01657026684798,
        -1.556941034530957e-06,
        0.0,
        33.016570266847886,
        20.622309286420762,
        2.4926817039824084e-06,
        0.0,
        18.193626403808594,
        61.154659271240234,
        -4.455894782040559e-07,
        1.0
      ],
      "name": "Plane.004"
    },
    {
      "mesh": 4,
      "name": "Plane.004_Material_0"
    },
    {
      "children": [
        14
      ],
      "matrix": [
        96.10568178712934,
        -11.849310664972014,
        -1.027228346373889e-06,
        0.0,
        -1.5374583559010443e-06,
        -4.075213052983978e-06,
        -96.83340454101553,
        0.0,
        11.84931066497196,
        96.10568178712927,
        -4.232722717029786e-06,
        0.0,
        41.30998229980469,
        56.83177185058594,
        -1.0264079719490837e-06,
        1.0
      ],
      "name": "Plane.005"
    },
    {
      "mesh": 5,
      "name": "Plane.005_Material_0"
    },
    {
      "children": [
        16
      ],
      "matrix": [
        2.938967361156461e-06,
        -2.1609271616291215e-15,
        -38.92780303955067,
        0.0,
        -20.622309286420705,
        33.01657026684798,
        -1.556941034530957e-06,
        0.0,
        33.016570266847886,
        20.622309286420762,
        2.4926817039824084e-06,
        0.0,
        18.193626403808594,
        61.154659271240234,
        -4.455894782040559e-07,
        1.0
      ],
      "name": "Plane.006"
    },
    {
      "mesh": 6,
      "name": "Plane.006_Material_0"
    },
    {
      "children": [
        18
      ],
      "matrix": [
        43.80085187925956,
        -27.351060039780613,
        -14.82924804744961,
        0.0,
        -2.4853955610866594,
        22.44986723754536,
        -48.747590384804326,
        0.0,
        31.013062208724154,
        40.42802053705877,
        17.037231174473632,
        0.0,
        44.21928405761719,
        51.40793228149414,
        43.77226257324219,
        1.0
      ],
      "name": "Plane.007"
    },
    {
      "mesh": 7,
      "name": "Plane.007_Material_0"
    },
    {
      "children": [
        20
      ],
      "matrix": [
        3.6568871931407005,
        -16.954446132124374,
        -64.4829458654634,
        0.0,
        -30.242253554614447,
        57.1327943708431,
        -16.73694307492578,
        0.0,
        59.42144928581623,
        30.120856322389812,
        -4.549806078840911,
        0.0,
        -5.683602333068848,
        105.40206146240234,
        -63.14951705932617,
        1.0
      ],
      "name": "Circle"
    },
    {
      "mesh": 8,
      "name": "Circle_Material_0"
    },
    {
      "children": [
        22
      ],
      "matrix": [
        100.0,
        0.0,
        0.0,
        0.0,
        0.0,
        -1.629206793918314e-05,
        -99.99999999999868,
        0.0,
        0.0,
        99.99999999999868,
        -1.629206793918314e-05,
        0.0,
        0.0,
        0.0,
        0.0,
        1.0
      ],
      "name": "Plane.008"
    },
    {
      "mesh": 9,
      "name": "Plane.008_Material_0"
    },
    {
      "children": [
        24
      ],
      "matrix": [
        100.0,
        0.0,
        0.0,
        0.0,
        0.0,
        -1.629206793918314e-05,
        -99.99999999999868,
        0.0,
        0.0,
        99.99999999999868,
        -1.629206793918314e-05,
        0.0,
        83.00035095214844,
        10.690288543701172,
        1.5894572698016418e-06,
        1.0
      ],
      "name": "Plane.009"
    },
    {
      "mesh": 10,
      "name": "Plane.009_Material_0"
    }
  ],
  "samplers": [
    {
      "magFilter": 9729,
      "minFilter": 9987,
      "wrapS": 10497,
      "wrapT": 10497
    }
  ],
  "scene": 0,
  "scenes": [
    {
      "name": "Sketchfab_Scene",
      "nodes": [
        0
      ]
    }
  ],
  "textures": [
    {
      "sampler": 0,
      "source": 0
    }
  ]
}
